# xmcd CD database file
#
# Track frame offsets:
#	150
#	16062
#	25065
#	65809
#	77517
#	105831
#	132152
#	146603
#	157934
#	175117
#
# Disc length: 2560 seconds
#
# Revision: 0
# Processed by: cddbd v1.5.1PL0 Copyright (c) Steve Scherf et al.
# Submitted via: CDex 1.51
#
DISCID=6e09fe0a
DTITLE=Rodent - Beautiful Monster
DYEAR=2004
DGENRE=Jazz
TTITLE0=Repp
TTITLE1=Pasquare
TTITLE2=Evil Beaver
TTITLE3=Improvisation
TTITLE4=Alphonso
TTITLE5=Mekkano
TTITLE6=Sulta
TTITLE7=The Bald Guy
TTITLE8=Podex
TTITLE9=The Donkey on the Mountain
EXTD=YEAR: 2004
EXTT0=
EXTT1=
EXTT2=
EXTT3=
EXTT4=
EXTT5=
EXTT6=
EXTT7=
EXTT8=
EXTT9=
PLAYORDER=
